<?xml version="1.0" encoding="UTF-8" standalone="no"?>
<svg xmlns:svg="http://www.w3.org/2000/svg" xmlns="http://www.w3.org/2000/svg" viewBox="0 0 59.466667 61.893333" height="61.893333" width="59.466667" xml:space="preserve" version="1.1">
  <g transform="matrix(1.3333333,0,0,-1.3333333,0,62.5)">
    <g transform="scale(0.1)">
      <path style="fill:#e28432;fill-opacity:1;fill-rule:nonzero;stroke:none" d="M 442.105,320.465 C 447.809,214.57 348.117,85.207 239.188,21.9258 c 34.871,16.414 60.433,30.6133 87.101,48.6015 69.832,47.1057 126.774,150.8437 118.953,230.7537 -0.656,6.727 -1.863,12.832 -3.137,19.184" />
      <path style="fill:#e28432;fill-opacity:1;fill-rule:nonzero;stroke:none" d="m 236.66,222.852 -0.004,-0.004 0.004,0.004 z" />
      <path style="fill:#e28432;fill-opacity:1;fill-rule:nonzero;stroke:none" d="m 146.332,250.848 c 21.148,28.496 49.465,53.789 82.852,66.757 15.082,5.86 36.097,11.7 51.125,2.528 12.918,-7.887 11.093,-24.5 6.222,-36.68 5.223,13.11 -9.035,22.805 -20.496,23.598 -14.074,0.969 -33.226,-4.196 -45.832,-9.781 -27.281,-12.086 -51.168,-32.196 -71.953,-53.489 0,0 -3.551,0.473 -6.07,1.035 1.398,1.446 2.461,3.75 4.152,6.032 m 118.07,-1.321 c 1.996,2.239 3.953,4.504 5.805,6.848 -1.734,-2.211 -3.727,-4.52 -5.805,-6.848 m -32.164,-30.32 c -3.277,-2.703 -2.281,-1.883 0,0 M 417.242,389.453 C 343.277,492.773 175.805,486.594 78.9844,385.285 56.7969,362.066 25.4961,287.254 120.453,249.5 61.3477,266.285 22.8555,312.734 58.6836,369.172 31.5977,339.414 -14.8711,281.219 4.66016,246.566 27.0586,206.836 130.234,212.758 228.121,271.473 192.203,242.668 137.836,217.957 92.4766,211.879 46.5586,205.727 15.7891,213.484 1.73828,236.855 13.4219,217.988 26.3711,198.5 45.7578,186.762 c 23.5313,-14.25 52.5703,-13 78.6872,-8.211 48.918,8.969 103.828,31.543 138.528,69.375 -8.77,-9.598 -19.422,-19.395 -26.317,-25.078 -31.148,-25.684 -67.941,-44.836 -107.242,-54.368 -32.5156,-7.886 -89.9413,-15.625 -113.496,15.934 11.0429,-17.711 20.3242,-37.68 36.5625,-51.402 19.0429,-16.094 46.3008,-17.328 70.0505,-14.719 52.27,5.742 104.371,34.777 143.699,68.711 33.418,28.828 76.325,80.187 64.883,128.16 -12.707,53.281 -83.726,45.031 -122.332,30.895 -38.215,-13.996 -74.918,-41.856 -96.265,-76.961 18.695,46.347 62.605,82.898 109.562,98.269 33.668,11.02 82.789,9.387 105.781,-22.316 27.879,-38.449 8.313,-86.196 -19.218,-123.09 -30.95,-41.477 -81.715,-75.762 -128.188,-97.875 -26.004,-12.375 -54.414,-21.578 -83.3905,-22.531 -23.3711,-0.77 -51.4531,3.636 -65.6758,24.441 15.9336,-27.4022 28.0547,-54.5155 61.5,-63.1796 29.4533,-7.6289 61.1333,0.0508 89.0003,10.1875 60.625,22.0508 114.648,63.8241 153.047,115.4761 33.925,45.641 66.375,116.208 33.675,170.993 -25.148,42.136 -81.23,51.523 -126.183,46.207 -35.399,-4.188 -71.039,-15.992 -100.422,-36.426 -22.008,-15.305 -53.0899,-40.652 -57.3048,-68.887 8.6328,55.844 60.2148,94.625 110.2228,112.707 49.633,17.949 114.285,21.805 157.379,-13.875 61.301,-50.754 41.133,-131.976 6.762,-189.418 C 322.992,149.512 258.68,97.1914 194.949,68.293 150.238,48.0195 60.7578,17.293 36.9375,82.1172 48.4453,49.5195 68.1094,17.6484 102.102,5.34766 c 39.75,-14.38282 95.703,3.0039 127.164,19.58204 41.039,21.625 77.605,52.2344 109.367,85.7383 33.476,35.312 63.019,77.426 81.113,122.859 20.266,50.879 30.387,109.981 -2.504,155.926" />
    </g>
  </g>
</svg>